# xmcd CD database file
#
# Track frame offsets:
#	150
#	19828
#	31727
#	43561
#	54974
#	57968
#	78288
#	96432
#	124522
#
# Disc length: 1834 seconds
#
# Revision: 0
# Processed by: cddbd v1.5.2PL0 Copyright (c) Steve Scherf et al.
# Submitted via: CDex 2.09
#
DISCID=65072809
DTITLE=Joan Baez - Live in '75
DYEAR=75
DGENRE=Country
TTITLE0=Intro - I Shall Be  Released
TTITLE1=Help Me Make It through The night
TTITLE2=Bridging The Gap
TTITLE3=Joe Hill
TTITLE4=Crowd Banter
TTITLE5=All my Trials
TTITLE6=The Night They Drove Old Dixie Down
TTITLE7=A Hard Rain's A-Gonna Fall
TTITLE8=Amazing Grace
EXTD=YEAR: 75
EXTT0=
EXTT1=
EXTT2=
EXTT3=
EXTT4=
EXTT5=
EXTT6=
EXTT7=
EXTT8=
PLAYORDER=
